<?xml version="1.0" encoding="UTF-8" standalone="no"?>
<!-- Created with Inkscape (http://www.inkscape.org/) -->

<svg
   xmlns:dc="http://purl.org/dc/elements/1.1/"
   xmlns:cc="http://creativecommons.org/ns#"
   xmlns:rdf="http://www.w3.org/1999/02/22-rdf-syntax-ns#"
   xmlns:svg="http://www.w3.org/2000/svg"
   xmlns="http://www.w3.org/2000/svg"
   xmlns:sodipodi="http://sodipodi.sourceforge.net/DTD/sodipodi-0.dtd"
   xmlns:inkscape="http://www.inkscape.org/namespaces/inkscape"
   width="56.06329"
   height="47.933979"
   id="svg6094"
   version="1.1"
   inkscape:version="0.48.4 r9939"
   sodipodi:docname="New document 21">
  <defs
     id="defs6096" />
  <sodipodi:namedview
     id="base"
     pagecolor="#ffffff"
     bordercolor="#666666"
     borderopacity="1.0"
     inkscape:pageopacity="0.0"
     inkscape:pageshadow="2"
     inkscape:zoom="7.9195959"
     inkscape:cx="28.402323"
     inkscape:cy="20.607088"
     inkscape:document-units="px"
     inkscape:current-layer="layer1"
     showgrid="false"
     fit-margin-top="2"
     fit-margin-left="10"
     fit-margin-right="1"
     fit-margin-bottom="1"
     inkscape:window-width="1366"
     inkscape:window-height="742"
     inkscape:window-x="0"
     inkscape:window-y="0"
     inkscape:window-maximized="1" />
  <metadata
     id="metadata6099">
    <rdf:RDF>
      <cc:Work
         rdf:about="">
        <dc:format>image/svg+xml</dc:format>
        <dc:type
           rdf:resource="http://purl.org/dc/dcmitype/StillImage" />
        <dc:title></dc:title>
      </cc:Work>
    </rdf:RDF>
  </metadata>
  <g
     inkscape:label="Layer 1"
     inkscape:groupmode="layer"
     id="layer1"
     transform="translate(-244.61121,-559.32376)">
    <g
       id="g3847"
       transform="matrix(0.04898911,0,0,0.05329949,262.00469,562.21086)"
       style="fill:#c8c8c8;fill-opacity:1;stroke:#000000;stroke-opacity:1">
      <path
         sodipodi:nodetypes="csssssssssscaaaasssssssssascc"
         inkscape:connector-curvature="0"
         id="path3050"
         d="m 325.99999,575.10518 c 0,0 30.96209,-20.36457 48.57143,-25 17.51273,-4.61 36.40026,-4.98156 54.28572,-2.14285 18.30261,2.90492 35.62125,10.89163 52.14285,19.28571 28.02359,14.23787 51.01745,37.01616 78.57143,52.14286 10.27789,5.6424 20.53496,12.63394 32.14286,14.28571 10.4677,1.48952 22.13451,0.75531 31.42857,-4.28571 6.08388,-3.29984 11.70131,-9.05057 13.57143,-15.71429 2.73931,-9.76084 -0.27624,-21.02983 -5,-30 -4.1584,-7.89659 -11.09034,-15.0381 -19.28571,-18.57143 -4.59665,-1.98179 -10.22559,-2.21818 -15,-0.71428 -6.31391,1.98882 -14.82143,13.12499 -14.82143,13.12499 0,0 6.77089,-14.52636 12.85714,-19.28571 6.31674,-4.93959 14.62419,-8.19217 22.64268,-8.12499 9.42992,0.079 18.58258,4.82257 26.46446,9.99999 8.86471,5.82301 16.63827,13.78384 22.14286,22.84971 5.08119,8.36855 7.71045,19.56797 9.28572,27.86458 1.28799,6.78357 1.10602,13.89868 0,20.71428 -1.32666,8.17521 -4.24816,16.11695 -7.85715,23.57143 -3.59704,7.4298 -8.29853,14.36314 -13.57143,20.71429 -5.27071,6.34851 -11.09004,12.4216 -17.85714,17.14286 -8.47112,5.91011 -18.0279,10.39726 -27.85714,13.57142 -23.91404,7.72257 -49.2287,10.94267 -74.28572,12.85715 -12.58461,0.96153 -25.32753,0.80424 -37.85714,-0.71429 -27.8681,-3.37749 -55.40054,-10.03404 -82.14286,-18.57143 -19.41905,-6.19946 -38.80757,-13.32285 -56.42857,-23.57143 -5.72227,-3.32814 -10.69643,-7.82521 -15.71428,-12.14285 C 336.68433,659.44821 326,648.6766 326,648.6766 z"
         style="fill:#c8c8c8;fill-opacity:1;stroke:none" />
      <path
         sodipodi:nodetypes="csssssssssscaaaasssssssssascc"
         inkscape:connector-curvature="0"
         id="path3050-6"
         d="m 329.81818,575.10518 c 0,0 -30.96209,-20.36457 -48.57143,-25 -17.51273,-4.61 -36.40026,-4.98156 -54.28572,-2.14285 -18.30261,2.90492 -35.62125,10.89163 -52.14285,19.28571 -28.02359,14.23787 -51.01745,37.01616 -78.571421,52.14286 -10.27789,5.6424 -20.53496,12.63394 -32.14286,14.28571 -10.4677,1.48952 -22.13451,0.75531 -31.42857,-4.28571 -6.08388,-3.29984 -11.70131,-9.05057 -13.57143,-15.71429 -2.73931,-9.76084 0.27624,-21.02983 5,-30 4.1584,-7.89659 11.09034,-15.0381 19.28571,-18.57143 4.59665,-1.98179 10.22559,-2.21818 15,-0.71428 6.31391,1.98882 14.82143,13.12499 14.82143,13.12499 0,0 -6.77089,-14.52636 -12.85714,-19.28571 -6.31674,-4.93959 -14.62419,-8.19217 -22.64268,-8.12499 -9.42992,0.079 -18.58258,4.82257 -26.46446,9.99999 -8.8647102,5.82301 -16.6382702,13.78384 -22.14286,22.84971 -5.08119,8.36855 -7.71045,19.56797 -9.28572,27.86458 -1.28799,6.78357 -1.10602,13.89868 0,20.71428 1.32666,8.17521 4.24816,16.11694 7.85715,23.57142 3.5970398,7.4298 8.2985298,14.36314 13.5714298,20.71429 5.27071,6.34851 11.0900402,12.4216 17.8571402,17.14286 8.47112,5.91011 18.0279,10.39726 27.85714,13.57142 23.91404,7.72257 49.2287,10.94267 74.285711,12.85715 12.58461,0.96153 25.32753,0.80424 37.85714,-0.71429 27.8681,-3.37749 55.40054,-10.03404 82.14286,-18.57143 19.41905,-6.19946 38.80757,-13.32285 56.42857,-23.57143 5.72227,-3.32814 10.69643,-7.82521 15.71428,-12.14285 5.74424,-4.94268 16.42857,-15.71429 16.42857,-15.71429 z"
         style="fill:#c8c8c8;fill-opacity:1;stroke:none" />
    </g>
    <g
       transform="matrix(0.04898911,0,0,0.05329949,252.36794,586.48795)"
       id="g3935"
       style="fill:none;stroke:#c8c8c8;stroke-opacity:1">
      <path
         sodipodi:nodetypes="cccccccc"
         transform="translate(12.865844,-563.4617)"
         inkscape:connector-curvature="0"
         id="path3870"
         d="M 48.571429,920 405.71429,105.71429 621.42857,600 l 71.42857,-152.85714 54.71663,111.19921 64.3345,-102.90228 125.23459,461.70307 z"
         style="fill:none;stroke:#c8c8c8;stroke-width:30;stroke-linecap:butt;stroke-linejoin:miter;stroke-miterlimit:4;stroke-opacity:1;stroke-dasharray:none" />
      <path
         sodipodi:nodetypes="ccccc"
         transform="translate(12.865844,-563.4617)"
         inkscape:connector-curvature="0"
         id="path3872"
         d="m 266.40877,423.26751 102.16266,99.58963 62.85714,-77.14285 54.28572,45.71428 66.34563,-74.15944"
         style="fill:none;stroke:#c8c8c8;stroke-width:30;stroke-linecap:butt;stroke-linejoin:miter;stroke-miterlimit:4;stroke-opacity:1;stroke-dasharray:none" />
    </g>
  </g>
</svg>
